<?xml version="1.0" encoding="utf-8"?>
<!-- Generator: Adobe Illustrator 23.0.2, SVG Export Plug-In . SVG Version: 6.00 Build 0)  -->
<svg version="1.1" id="图层_1" xmlns="http://www.w3.org/2000/svg" xmlns:xlink="http://www.w3.org/1999/xlink" x="0px" y="0px"
	 viewBox="0 0 229.92 247.3" style="enable-background:new 0 0 229.92 247.3;" xml:space="preserve">
<style type="text/css">
	.st0{fill:#FFFFFF;}
	.st1{fill:#4B5F83;}
	.st2{font-family:'AdobeSongStd-Light-GBpc-EUC-H';}
	.st3{font-size:9.3834px;}
	.st4{fill:none;}
</style>
<path class="st0" d="M920.25,119.09"/>
<text transform="matrix(1 0 0 1 914.7095 251.3099)" class="st2" style="font-size:12px;">03</text>
<g>
	<g>
		<path class="st0" d="M138.39,194.66c0,0,4.89,22.58-14.37,25.93c-4.31,0.75-20.78-0.61-22.06-4.92c0,0,21.16,7.87,30.1-2.17
			c6.08-6.83,5.22-14.98,5.12-18.04C137.15,194.58,138.39,194.66,138.39,194.66z"/>
		<path class="st0" d="M137.6,184.35l-2.87-1.34c0,0,5.36-12.06,13.98-2.3c8.62,9.77-11.3,28.02-11.3,28.02s9.55-2.75,13.41,2.23
			c5.92,7.66-11.58,30.2-50.93,17.42c-3.7-1.2-17.23-8.23,0.96-15.51c0,0-11.11,6.7-0.19,13.02c10.91,6.32,32.4,5.43,41.79-5.29
			c9.38-10.72-7.89-8.88-7.89-8.88l2.68-4.4c0,0,12.24-12.56,11.47-19.84C147.92,180.21,142.58,177.65,137.6,184.35z"/>
		<path class="st0" d="M139.29,160.18c0,0,6.69-5.01,9.63-3.4c2.94,1.61,10.99,4.16,11.32-4.59c0.07-1.94-3.9-8.46-14.7-1.92
			C139.52,153.92,139.29,160.18,139.29,160.18z"/>
		<path class="st0" d="M75.14,140.06c0,0-4.19-2.68-5.87-1.59c-1.68,1.09-6.34,2.95-6.92-2.22c-0.13-1.15,1.94-5.19,8.64-1.79
			C74.72,136.35,75.14,140.06,75.14,140.06z"/>
		<path class="st0" d="M106.23,162.43c0,0-0.82-7.2-3.24-8.43c-10.84-5.49,6.52-13.15,5.15,0.72
			C107.57,160.53,106.23,162.43,106.23,162.43z"/>
		<path class="st0" d="M107.67,170.88c0,0-8.3-9.75-11.5-7.39c-12.04,8.89-11.05-12.52,2.44-6.04
			C106.11,161.06,107.67,170.88,107.67,170.88z"/>
		<path class="st0" d="M141.72,167.71c-4.97-3.68-8.61,7.46-15.21,3.78c-6.59-3.68,16.26-15.64,5.83-20.4
			c-10.43-4.75-15,19.74-16.42,23.31c-2.01,5.02-5.96,9.34-11.05,3.51c-7.83-8.96-11.98-6.02-13.4-4.18
			c-2.75,3.55-0.92,7.47,3.06,10.96c-3.77,2.07-4.51,4.99,0.43,8.92c17.56,13.97,39.46,3.65,43.28,1.79
			c0.05-0.02,0.1-0.07,0.15-0.14c0.36-0.52-0.18-1.19-0.78-1c-7.59,2.41-12.45,4.8-26.59,2.98c-6.27-0.81-15.68-6.42-13.92-10.56
			c6.54,4.54,16.27,7.93,22.77,7.98c5.28,0.05,9.69-0.94,13.02-2.42c5.04-1.8,7.53-4.79,6.89-7.33c0-0.01,0-0.02,0-0.03
			c0-0.28-0.11-0.53-0.3-0.76c-0.09-0.17-0.19-0.33-0.31-0.49c-0.73-0.97-3.24-1.73-6.74-2.25c-1.23-0.55-2.04-1.28-1.75-2.39
			C131.58,175.47,148.96,173.07,141.72,167.71z"/>
		<text transform="matrix(1 0 0 1 88.1493 65.6656)" class="st1 st2 st3"> </text>
		<path class="st4" d="M119.59,76.27l12.62-11.63c0.49,0.49,0.77,1.14,0.76,2.01c-0.06,4.96-7.8,10.98-7.9,11.04l0.38,0.68
			c0.42-0.24,8.24-6.3,8.3-11.71c0.01-1.13-0.35-1.95-0.97-2.56c0.96-0.92,1.27-2.17,0.31-3.13c-1.01-1.01-2.34-0.62-3.28,0.46
			l-0.96,1.04c-0.76-0.14-1.56-0.25-2.36-0.36c-2.2-0.29-4.47-0.6-5.97-1.56c-0.79-0.51-1.23-1.16-1.32-1.97
			c-0.29-2.49,2.7-5.61,2.73-5.65l-0.56-0.54c-0.13,0.14-3.28,3.42-2.95,6.28c0.12,1.05,0.68,1.9,1.68,2.54
			c1.65,1.06,4.01,1.37,6.29,1.68c0.63,0.08,1.25,0.17,1.83,0.26L117.8,74.47l-6.97-7.01c0,0,1.39-4.56-1.11-7.4
			c-4.66-5.3-9.7-1.95-9.7-1.95l4.83,4.83l-7.51,7.51c4.08,4.08,8.31,2.21,8.31,2.21l7.22,7.15L99.96,93.82
			c-0.17,0.18,0.09,0.45,0.28,0.28l14.01-12.91l12.36,12.24c0,0,2.74,1.96,4.7,0s0.68-4.7,0.68-4.7L119.59,76.27z M131.86,62.2
			c0.13,0.13-0.03,0.51-0.38,1.02c-0.31-0.14-0.65-0.26-1.01-0.37C131.17,62.32,131.71,62.05,131.86,62.2z M129.15,64.03
			c0.2-0.2,0.4-0.39,0.6-0.57c0.45,0.11,0.87,0.24,1.24,0.4c-0.27,0.33-0.59,0.69-0.96,1.05c-1.25,1.25-2.46,2.07-2.71,1.82
			S127.9,65.28,129.15,64.03z M128.28,91.73c-0.32,0.32-0.86,0.32-1.18,0l-17.79-17.79c-0.32-0.32-0.32-0.86,0-1.18
			c0.32-0.32,0.86-0.32,1.18,0l17.79,17.79C128.6,90.87,128.6,91.4,128.28,91.73z M130.09,89.92c-0.32,0.32-0.86,0.32-1.18,0
			l-17.79-17.79c-0.32-0.32-0.32-0.86,0-1.18h0c0.32-0.32,0.86-0.32,1.18,0l4.55,4.55l1.71,1.71l11.52,11.52
			C130.41,89.06,130.41,89.6,130.09,89.92z"/>
		<path class="st4" d="M80.17,55.36l10.75,4.35l2.56-4.84l-8.7-5.79c0,0,6.88-7.18,1.98-11.66c-7.45-6.81-19.66,7.41-19.66,7.41
			c0.05,2.24,11.43,20.71,11.43,20.71l5.29-3.28L80.17,55.36z M76.98,49.75l-2.44-4.13c0.29-0.72,3.69-2.92,5.12-2.26
			c1.43,0.67,1.94,2.06,1.55,3.21C80.77,47.89,76.98,49.75,76.98,49.75z"/>
		<path class="st4" d="M142.09,111.47c-4.09-0.78,3.25-8.77,3.25-8.77s-5.51-7.3-10.2,0.07c-3.59,5.63,0.13,12.02,4.14,12.9
			s8.6-0.59,11.05-4.3l-2.25-3.68C148.07,107.69,146.17,112.25,142.09,111.47z M137.61,104.27c1.32-2.38,5.06-2.27,2.35,1.89
			C138.66,108.15,136.57,106.16,137.61,104.27z"/>
		<path class="st4" d="M135.55,100.32c0.13-0.2,7.46-7.62,7.46-7.62s-3.81-1.17-6.16,1.27C134.51,96.41,135.55,100.32,135.55,100.32
			z"/>
		<path class="st4" d="M153.47,48.96l2.77-4.16l-4.41-3l-11.58,14.8l3.33,2.3c4.74-3.88,7.13-6.41,8.97-5.16
			c2.53,1.71,1.78,5.93,1.78,5.93l4.9-1.02C160.78,50.95,153.47,48.96,153.47,48.96z"/>
		<path class="st4" d="M83.81,107.11c-0.88,11.22,13.72,14.39,13.72,14.39l1.5-5.24c0,0-5.99-1.08-5.96-7.38s7.23-7.64,7.23-7.64
			l0.14-4.88C100.44,96.37,84.69,95.9,83.81,107.11z"/>
		<path class="st4" d="M114.78,116.44c-0.11-0.94-0.51-9.6-3.75-12.39c-3.23-2.79-7.05-2.9-7.05-2.9l-0.69,4.11
			c0,0,5.05,0.18,5.23,3.65c0.19,3.47-5.28,6.12-5.56,9.38c-0.28,3.26,5.08,4.42,8.48,2.21l3.93,2.56l2.58-4.38
			C117.97,118.69,114.88,117.38,114.78,116.44z M108.58,118.54c-2.59-0.89-0.29-4.23,1.53-3.41
			C112.66,116.28,110.5,119.2,108.58,118.54z"/>
		<path class="st4" d="M142.88,39.52c2.96,1.18,5.95-2.75,2.02-4.76C142.12,33.34,138.89,37.92,142.88,39.52z"/>
		<path class="st4" d="M129.55,46.83l-0.62,2.27l3.82,0.83l3.03-14.01l-3.92-1.63l-0.79,1.82c0,0-8.45-2.85-10.23,4.74
			C119.07,48.43,126.12,48.49,129.55,46.83z M128.11,39.94c2.39,1.22,0.03,3.81-1.28,3.24C124.43,42.12,126.42,39.08,128.11,39.94z"
			/>
		<path class="st4" d="M125.7,103.26c0.99-1.81,3.17-2.43,3.17-2.43l-1.17-3.49c0,0-5.08,2.4-5.57,5.65
			c-0.49,3.25-0.56,6.09-0.56,6.09l-2.99-0.01v3.81h3.85l0.59,11.93h5.08l-1.95-11.14l3.91,0.39v-3.52l-4.01-0.2
			C126.03,110.35,124.97,104.58,125.7,103.26z"/>
		<path class="st4" d="M116.25,48.73l-1.5-8.2c0,0,9.95-2.52,3.14-10.52c-2.79-3.28-12.36,1.06-12.36,1.06l5.85,18.6L116.25,48.73z
			 M112.31,32.9c0.41-0.66,3.36-1.43,3.88,0.22c0.73,2.3-2.13,4.58-3.13,3.31C112.46,35.66,111.87,33.61,112.31,32.9z"/>
		<polygon class="st4" points="144.24,43.37 139.1,41.87 136.18,52.31 139.87,53.1 		"/>
		<path class="st4" d="M95.28,65.83c0.24,2.96,1.44,3.74,1.44,3.74l3.46-3.46l-4-3.93C96.19,62.18,95.04,62.87,95.28,65.83z"/>
		<path class="st4" d="M106.02,51.04l-1.36-2.96c0,0-6.23,2.9-6.5-0.75c0,0,5.69-4.96,6.29-6.89c0.66-2.1-1.26-5.49-4.53-5.69
			c-3.46-0.21-11.59,8.71-7.25,15.78C97,57.6,106.02,51.04,106.02,51.04z M98.39,38.63c1.77-1.22,3.73,0.61,1.32,3.2
			C96.24,45.56,94.8,41.11,98.39,38.63z"/>
		<path class="st0" d="M130.04,64.91c0.36-0.36,0.68-0.72,0.96-1.05c-0.37-0.16-0.79-0.29-1.24-0.4c-0.2,0.18-0.4,0.36-0.6,0.57
			c-1.25,1.25-2.07,2.46-1.82,2.71S128.79,66.16,130.04,64.91z"/>
		<path class="st0" d="M131.86,62.2c-0.15-0.15-0.7,0.12-1.39,0.65c0.35,0.11,0.69,0.23,1.01,0.37
			C131.83,62.71,131.99,62.33,131.86,62.2z"/>
		<path class="st0" d="M81.22,46.57c0.39-1.15-0.12-2.54-1.55-3.21c-1.43-0.67-4.83,1.54-5.12,2.26l2.44,4.13
			C76.98,49.75,80.77,47.89,81.22,46.57z"/>
		<path class="st0" d="M99.71,41.83c2.42-2.59,0.45-4.43-1.32-3.2C94.8,41.11,96.24,45.56,99.71,41.83z"/>
		<path class="st0" d="M116.19,33.12c-0.52-1.66-3.47-0.88-3.88-0.22c-0.44,0.71,0.15,2.76,0.75,3.53
			C114.06,37.7,116.92,35.43,116.19,33.12z"/>
		<path class="st0" d="M126.83,43.18c1.31,0.58,3.68-2.02,1.28-3.24C126.42,39.08,124.43,42.12,126.83,43.18z"/>
		<path class="st0" d="M110.1,115.13c-1.81-0.82-4.12,2.52-1.53,3.41C110.5,119.2,112.66,116.28,110.1,115.13z"/>
		<path class="st0" d="M137.61,104.27c-1.04,1.89,1.05,3.88,2.35,1.89C142.67,102,138.93,101.88,137.61,104.27z"/>
		<path class="st0" d="M61.56,93.12c0.19,0.08,0.4-0.02,0.48-0.21c0.08-0.19-0.02-0.4-0.21-0.48c-0.19-0.08-0.4,0.02-0.48,0.21
			C61.28,92.83,61.37,93.05,61.56,93.12z"/>
		<path class="st0" d="M61.11,94.32c0.19,0.08,0.4-0.02,0.48-0.21s-0.02-0.4-0.21-0.48c-0.19-0.08-0.4,0.02-0.48,0.21
			C60.83,94.03,60.92,94.24,61.11,94.32z"/>
		<path class="st0" d="M184.23,35.03c-25.49-23.34-125.69-23.5-148.44,24.5c-20.11,42.42,27.24,72,42.77,70.9
			c12.15-0.86,29.39-0.7,37.89,24.55c0,0,4.13-27.45,22.63-28.95s26.13,5.38,42-10C194.46,103.06,211.52,60.03,184.23,35.03z
			 M144.9,34.76c3.93,2.01,0.94,5.94-2.02,4.76C138.89,37.92,142.12,33.34,144.9,34.76z M139.1,41.87l5.14,1.51l-4.37,9.73
			l-3.69-0.8L139.1,41.87z M143.01,92.7c0,0-7.33,7.43-7.46,7.62c0,0-1.04-3.91,1.3-6.35C139.2,91.52,143.01,92.7,143.01,92.7z
			 M120.84,40.84c1.78-7.59,10.23-4.74,10.23-4.74l0.79-1.82l3.92,1.63l-3.03,14.01l-3.82-0.83l0.62-2.27
			C126.12,48.49,119.07,48.43,120.84,40.84z M117.9,30.02c6.8,8-3.14,10.52-3.14,10.52l1.5,8.2l-4.87,0.95l-5.85-18.6
			C105.54,31.08,115.11,26.74,117.9,30.02z M99.91,34.74c3.28,0.2,5.19,3.58,4.53,5.69c-0.6,1.93-6.29,6.89-6.29,6.89
			c0.28,3.65,6.5,0.75,6.5,0.75l1.36,2.96c0,0-9.02,6.56-13.36-0.51C88.32,43.45,96.46,34.54,99.91,34.74z M100.19,66.11l-3.46,3.46
			c0,0-1.2-0.78-1.44-3.74c-0.24-2.96,0.9-3.65,0.9-3.65L100.19,66.11z M59.88,90.81c1.3-0.56,2.8,0.04,3.36,1.34
			c0.56,1.3-0.04,2.8-1.34,3.36c-1.3,0.56-2.8-0.04-3.36-1.34C57.98,92.87,58.58,91.37,59.88,90.81z M44.9,71.7
			c2.59,0,4.69,2.1,4.69,4.69c0,2.59-2.1,4.69-4.69,4.69c-2.59,0-4.69-2.1-4.69-4.69C40.21,73.81,42.31,71.7,44.9,71.7z
			 M64.31,121.17c-0.8,3.07-10.36-5.72-15.62-12.07c-6.12-7.38-10.6-21.74-7.43-21.74s10.46,15.27,12.83,19.02
			C56.53,110.23,65.11,118.1,64.31,121.17z M75.24,125.62c-1.05,1.92-5.74-0.21-6.42-2.61c-0.21-0.76,0.01-1.34,0.41-1.78
			c0.93-1.03,2.58-1.01,3.59-0.06C74.16,122.41,75.92,124.38,75.24,125.62z M78.54,65.54c0,0-11.38-18.47-11.43-20.71
			c0,0,12.21-14.22,19.66-7.41c4.9,4.48-1.98,11.66-1.98,11.66l8.7,5.79l-2.56,4.84l-10.75-4.35l3.67,6.9L78.54,65.54z
			 M100.3,101.24c0,0-7.19,1.35-7.23,7.64s5.96,7.38,5.96,7.38l-1.5,5.24c0,0-14.6-3.17-13.72-14.39
			c0.88-11.22,16.63-10.74,16.63-10.74L100.3,101.24z M115.39,123.06l-3.93-2.56c-3.41,2.21-8.76,1.05-8.48-2.21
			c0.28-3.26,5.74-5.91,5.56-9.38c-0.19-3.47-5.23-3.65-5.23-3.65l0.69-4.11c0,0,3.82,0.11,7.05,2.9
			c3.23,2.79,3.64,11.44,3.75,12.39c0.11,0.94,3.19,2.25,3.19,2.25L115.39,123.06z M130.04,114.06l-3.91-0.39l1.95,11.14H123
			l-0.59-11.93h-3.85v-3.81l2.99,0.01c0,0,0.08-2.84,0.56-6.09c0.49-3.25,5.57-5.65,5.57-5.65l1.17,3.49c0,0-2.18,0.62-3.17,2.43
			c-0.72,1.32,0.33,7.09,0.33,7.09l4.01,0.2V114.06z M131.32,93.43c-1.96,1.96-4.7,0-4.7,0l-12.36-12.24L100.24,94.1
			c-0.18,0.17-0.45-0.09-0.28-0.28l12.91-14.01l-7.22-7.15c0,0-4.23,1.87-8.31-2.21l7.51-7.51l-4.83-4.83c0,0,5.04-3.35,9.7,1.95
			c2.5,2.85,1.11,7.4,1.11,7.4l6.97,7.01l10.43-11.31c-0.59-0.09-1.2-0.18-1.83-0.26c-2.28-0.31-4.64-0.62-6.29-1.68
			c-0.99-0.64-1.55-1.49-1.68-2.54c-0.33-2.86,2.81-6.14,2.95-6.28l0.56,0.54c-0.03,0.03-3.02,3.15-2.73,5.65
			c0.09,0.81,0.53,1.46,1.32,1.97c1.5,0.97,3.77,1.27,5.97,1.56c0.79,0.11,1.59,0.21,2.36,0.36l0.96-1.04
			c0.94-1.08,2.27-1.48,3.28-0.46c0.96,0.96,0.65,2.21-0.31,3.13c0.62,0.61,0.98,1.43,0.97,2.56c-0.06,5.41-7.88,11.47-8.3,11.71
			l-0.38-0.68c0.1-0.06,7.85-6.08,7.9-11.04c0.01-0.88-0.27-1.52-0.76-2.01l-12.62,11.63l12.4,12.46
			C131.99,88.73,133.27,91.47,131.32,93.43z M139.27,115.67c-4.01-0.88-7.73-7.27-4.14-12.9c4.69-7.36,10.2-0.07,10.2-0.07
			s-7.33,7.99-3.25,8.77c4.09,0.78,5.98-3.78,5.98-3.78l2.25,3.68C147.87,115.09,143.28,116.55,139.27,115.67z M159.23,58.64
			l-4.9,1.02c0,0,0.75-4.22-1.78-5.93c-1.84-1.25-4.23,1.28-8.97,5.16l-3.33-2.3l11.58-14.8l4.41,3l-2.77,4.16
			C153.47,48.96,160.78,50.95,159.23,58.64z M165.35,120.84c-1.4-1.7-5.89-0.69-5.44-4.63c0,0,11.74-9.32,12.78-4.68
			C173.74,116.16,166.74,122.55,165.35,120.84z M173.96,96.01c-0.79,0-1.43-0.64-1.43-1.43s0.64-1.43,1.43-1.43
			c0.79,0,1.43,0.64,1.43,1.43S174.74,96.01,173.96,96.01z M175.72,49.13c-0.69-1.2-0.27-2.73,0.93-3.41s2.73-0.27,3.41,0.93
			c0.69,1.2,0.27,2.73-0.93,3.41S176.4,50.33,175.72,49.13z M178.57,105.44c-3.8-2.04,9.54-19.87,10.38-16.65
			C189.8,92.08,182.37,107.48,178.57,105.44z M188.45,83.52c-4.36-2.49,0-5.49,0-5.49C189.59,80.54,192.81,86.01,188.45,83.52z"/>
		<path class="st0" d="M178.29,47.37l0.13-0.49l-0.49-0.13l-0.13,0.49c-0.05,0.19-0.25,0.3-0.44,0.25l-0.49-0.13l-0.13,0.49
			l0.49,0.13c0.19,0.05,0.3,0.25,0.25,0.44l-0.13,0.49l0.49,0.13l0.13-0.49c0.05-0.19,0.25-0.3,0.44-0.25l0.49,0.13l0.13-0.49
			l-0.49-0.13C178.35,47.76,178.24,47.56,178.29,47.37z"/>
		<path class="st0" d="M60.41,92.68c0.19,0.08,0.4-0.02,0.48-0.21c0.08-0.19-0.02-0.4-0.21-0.48c-0.19-0.08-0.4,0.02-0.48,0.21
			C60.13,92.39,60.22,92.61,60.41,92.68z"/>
		<path class="st0" d="M59.93,93.82c0.19,0.08,0.4-0.02,0.48-0.21c0.08-0.19-0.02-0.4-0.21-0.48c-0.19-0.08-0.4,0.02-0.48,0.21
			C59.65,93.54,59.74,93.75,59.93,93.82z"/>
		<path class="st0" d="M43.75,76.82c0.26-0.26,0.26-0.69,0-0.95c-0.26-0.26-0.69-0.26-0.95,0c-0.26,0.26-0.26,0.69,0,0.95
			C43.06,77.09,43.49,77.09,43.75,76.82z"/>
		<path class="st0" d="M45.38,78.5c0.26-0.26,0.26-0.69,0-0.95c-0.26-0.26-0.69-0.26-0.95,0c-0.26,0.26-0.26,0.69,0,0.95
			C44.69,78.77,45.12,78.77,45.38,78.5z"/>
		<path class="st0" d="M45.38,75.25c0.26-0.26,0.26-0.69,0-0.95c-0.26-0.26-0.69-0.26-0.95,0c-0.26,0.26-0.26,0.69,0,0.95
			C44.69,75.51,45.12,75.51,45.38,75.25z"/>
		<path class="st0" d="M47.01,76.82c0.26-0.26,0.26-0.69,0-0.95c-0.26-0.26-0.69-0.26-0.95,0c-0.26,0.26-0.26,0.69,0,0.95
			C46.32,77.09,46.75,77.09,47.01,76.82z"/>
		<path class="st0" d="M110.49,72.76c-0.32-0.32-0.86-0.32-1.18,0c-0.32,0.32-0.32,0.86,0,1.18l17.79,17.79
			c0.32,0.32,0.86,0.32,1.18,0s0.32-0.86,0-1.18L110.49,72.76z"/>
		<path class="st0" d="M118.56,77.22l-1.71-1.71l-4.55-4.55c-0.32-0.32-0.86-0.32-1.18,0h0c-0.32,0.32-0.32,0.86,0,1.18l17.79,17.79
			c0.32,0.32,0.86,0.32,1.18,0c0.32-0.32,0.32-0.86,0-1.18L118.56,77.22z"/>
	</g>
	<g>
		<path class="st0" d="M105.66,202.58c-0.2,0.2,0.09,0.91,0.31,1c0.23,0.08,4.41,0.11,4.69-0.09c0.29-0.2,0.43-0.55,0.26-0.72
			S105.86,202.38,105.66,202.58z"/>
		<path class="st0" d="M110.06,204.01c0.11,0.08,0.15,0.26-0.01,0.46s-3.5,0.26-3.63,0.19s-0.15-0.55,0.03-0.71
			C106.63,203.81,109.94,203.94,110.06,204.01z"/>
		<path class="st0" d="M107.8,201.17c0.28-0.16,0.99-0.08,1.15,0.05c0.16,0.13-0.12,2.78-0.12,2.78l-0.9,0.16
			C107.93,204.16,107.51,201.33,107.8,201.17z"/>
		<path class="st0" d="M106.12,204.94c0.18-0.09,0.6-0.07,0.71,0.03c0.1,0.1,0.49,1.58,0.38,1.65c-0.11,0.07-0.81,0.19-0.89,0.07
			C106.23,206.58,105.94,205.03,106.12,204.94z"/>
		<path class="st0" d="M107.14,204.99c-0.05,0.14,0.05,0.3,0.17,0.4c0.12,0.1,1.72-0.01,1.8,0.08c0.08,0.09,0.01,0.48-0.13,0.54
			c-0.14,0.07-1.83-0.16-1.92-0.08c-0.1,0.08-0.12,0.48-0.02,0.55c0.09,0.07,2.27,0.3,2.58,0.11c0.31-0.19,0.99-1.23,0.41-1.6
			C109.44,204.6,107.18,204.84,107.14,204.99z"/>
		<path class="st0" d="M104.3,206.8l0.33,0.07c0.21,0.05,0.35,0.25,0.32,0.47l-0.2,1.32c-0.04,0.24-0.28,0.4-0.52,0.34l-0.64-0.17
			c-0.24-0.06-0.37-0.33-0.28-0.56l0.51-1.22C103.9,206.87,104.1,206.76,104.3,206.8z"/>
		<path class="st0" d="M105.14,207.13c-0.12,0.21,0.54,0.85,0.78,0.82c1.12-0.14,5.3-0.6,5.59,0.03c0.24,0.26-0.56,0.65-0.47,0.75
			c0.09,0.11,1.83,0.04,1.96-0.08c0.13-0.12,0.43-1.02-0.41-1.48C111.76,206.72,105.26,206.91,105.14,207.13z"/>
		<path class="st0" d="M106.23,208.06c0.18-0.1,3.47-0.28,3.66-0.13c0.19,0.14,0.22,0.66-0.04,0.81c-0.26,0.15-3.52,0.14-3.66,0.08
			C106.04,208.77,106.05,208.16,106.23,208.06z"/>
		<path class="st0" d="M107.16,208.64c0.32-0.06,1.04-0.01,1.07,0.13c0.03,0.14-1.28,0.72-1.2,0.9c0.08,0.18,2.37-0.25,2.58-0.19
			s0.23,0.45,0.18,0.66c-0.05,0.21-3.45,0.87-4.27,0.26C104.92,209.96,106.84,208.7,107.16,208.64z"/>
		<path class="st0" d="M109.33,209.11c0.13-0.14,0.66-0.19,0.83-0.12c0.16,0.07,0.87,1.04,0.76,1.21c-0.11,0.17-0.9,0.36-1.14,0.29
			C109.54,210.42,109.2,209.25,109.33,209.11z"/>
		<path class="st0" d="M105.72,210.93c-0.22,0.15,0.04,0.8,0.29,0.96s3.47,0.15,3.68,0.05s0.25-0.57,0.11-0.79
			C109.67,210.94,105.95,210.78,105.72,210.93z"/>
		<path class="st0" d="M111.63,213c0.31,0.18,0.53,0.92,0.36,1.07c-0.17,0.15-8.34-0.63-8.43-0.84c-0.09-0.2-0.02-0.85,0.21-0.93
			C103.98,212.23,111.31,212.82,111.63,213z"/>
		<path class="st0" d="M107.59,209.98c0.22-0.14,0.43-0.11,0.71,0.03s0.16,2.84,0,3.03s-1.14,0.17-1.33-0.06
			C106.78,212.76,107.37,210.11,107.59,209.98z"/>
		<path class="st0" d="M115.72,204.42c-0.35,0.22-0.13,1.34-0.02,1.55c0.11,0.22,5.95,0.51,6.23,0.36c0.28-0.15,0.57-0.77,0.23-1.15
			S116.07,204.2,115.72,204.42z"/>
		<path class="st0" d="M117.77,203.48c0.28-0.21,1.78-0.1,1.87,0.21c0.09,0.31-0.46,3.75-0.62,3.89c-0.16,0.14-0.79,0.39-1.03,0.11
			C117.75,207.4,117.49,203.69,117.77,203.48z"/>
		<path class="st0" d="M114.88,207.37c0.32-0.44,1.08-0.22,1.18,0.05c0.09,0.27,0.24,6.51-0.29,6.93c-0.53,0.42-1.3,0.12-1.5-0.25
			C114.08,213.73,114.56,207.81,114.88,207.37z"/>
		<path class="st0" d="M116.47,207.23c-0.11,0.31-0.19,0.81,0.12,1.07c0.31,0.26,4.35-0.01,4.56,0.4s-0.68,5.83-0.37,6.11
			s1.63,0.5,1.93,0.08c0.3-0.41,0.44-6.59-0.09-7.07C122.09,207.33,116.58,206.91,116.47,207.23z"/>
		<path class="st0" d="M116.93,209.07c0.09-0.36,1.03-0.42,1.2-0.29c0.17,0.13-0.03,1.14-0.03,1.14l-0.63,0.11
			C117.46,210.04,116.83,209.43,116.93,209.07z"/>
		<path class="st0" d="M118.93,208.99c-0.26,0.11-0.29,0.97-0.29,0.97l0.82,0.17c0,0,0.94-0.79,0.77-1.02
			S119.18,208.88,118.93,208.99z"/>
		<path class="st0" d="M116.69,209.67c-0.18,0.21-0.25,1-0.05,1.15s3.29,0.14,3.52-0.05s0.2-0.58,0.03-0.73
			C120.02,209.9,116.87,209.45,116.69,209.67z"/>
		<path class="st0" d="M116.72,211.58c-0.18,0.16-0.12,0.7-0.04,0.89s3.5,0.32,3.68,0.16c0.19-0.16,0.31-0.96,0.05-1.16
			C120.16,211.27,116.9,211.42,116.72,211.58z"/>
		<path class="st0" d="M117.95,210.32c0.19-0.02,0.75-0.07,0.93,0.04c0.18,0.11,0.33,3.43,0.12,3.67c-0.22,0.24-1.23,0.25-1.53-0.07
			S117.76,210.34,117.95,210.32z"/>
	</g>
</g>
</svg>
